<svg width="15" height="17" viewBox="0 0 15 17" fill="none" xmlns="http://www.w3.org/2000/svg">
<path fill-rule="evenodd" clip-rule="evenodd" d="M11.25 2.41073V2.59449C12.3325 2.69065 13.4106 2.82892 14.4817 3.00897C14.5625 3.02257 14.6399 3.05152 14.7092 3.09416C14.7786 3.13679 14.8386 3.19228 14.8859 3.25746C14.9332 3.32263 14.9668 3.39621 14.9848 3.474C15.0028 3.55179 15.0048 3.63226 14.9908 3.71082C14.9768 3.78939 14.947 3.8645 14.9031 3.93187C14.8592 3.99925 14.8021 4.05756 14.735 4.10349C14.6679 4.14942 14.5922 4.18207 14.5121 4.19956C14.432 4.21705 14.3492 4.21905 14.2683 4.20544L14.0942 4.17711L13.2567 14.7576C13.2084 15.3677 12.9248 15.9375 12.4627 16.3533C12.0006 16.769 11.394 17 10.7642 17H4.23667C3.60683 17 3.00022 16.769 2.53811 16.3533C2.076 15.9375 1.79246 15.3677 1.74417 14.7576L0.905838 4.17711L0.731672 4.20544C0.650799 4.21905 0.56796 4.21705 0.487883 4.19956C0.407806 4.18207 0.33206 4.14942 0.26497 4.10349C0.129475 4.01074 0.0374618 3.86949 0.00917209 3.71082C-0.0191176 3.55216 0.0186335 3.38908 0.114121 3.25746C0.209608 3.12583 0.355009 3.03645 0.518339 3.00897C1.58939 2.8287 2.66749 2.69043 3.75 2.59449V2.41073C3.75 1.14463 4.76084 0.0631009 6.09667 0.0218151C7.03226 -0.00727169 7.96857 -0.00727169 8.90417 0.0218151C10.24 0.0631009 11.25 1.14463 11.25 2.41073ZM6.13667 1.23529C7.0456 1.20706 7.95523 1.20706 8.86417 1.23529C9.49167 1.25472 10 1.76796 10 2.41073V2.5022C8.33487 2.40396 6.66513 2.40396 5 2.5022V2.41073C5 1.76796 5.5075 1.25472 6.13667 1.23529ZM5.84083 6.04792C5.83766 5.96819 5.81835 5.88985 5.78401 5.81737C5.74967 5.74489 5.70097 5.67968 5.64069 5.62548C5.58041 5.57129 5.50973 5.52915 5.43269 5.50149C5.35564 5.47383 5.27374 5.46117 5.19167 5.46426C5.10959 5.46734 5.02895 5.4861 4.95433 5.51946C4.87972 5.55282 4.8126 5.60013 4.75681 5.65869C4.70101 5.71724 4.65764 5.7859 4.62916 5.86075C4.60069 5.93559 4.58766 6.01515 4.59084 6.09488L4.88 13.3806C4.88641 13.5415 4.95836 13.6934 5.08003 13.8028C5.14027 13.8569 5.2109 13.899 5.28789 13.9267C5.36489 13.9543 5.44673 13.967 5.52875 13.9639C5.61077 13.9608 5.69137 13.942 5.76593 13.9087C5.84049 13.8754 5.90757 13.8281 5.96332 13.7696C6.01907 13.711 6.06242 13.6424 6.09087 13.5676C6.11933 13.4928 6.13234 13.4133 6.12917 13.3337L5.84083 6.04792ZM10.4075 6.09488C10.4136 6.01362 10.4028 5.93199 10.3758 5.85486C10.3487 5.77774 10.306 5.70669 10.2501 5.64595C10.1942 5.58521 10.1262 5.53603 10.0503 5.50132C9.97445 5.46662 9.89215 5.44711 9.80834 5.44396C9.72453 5.44081 9.64092 5.45408 9.5625 5.48297C9.48407 5.51187 9.41244 5.55581 9.35186 5.61216C9.29129 5.66852 9.24301 5.73615 9.2099 5.81101C9.1768 5.88588 9.15954 5.96645 9.15917 6.04792L8.87 13.3337C8.86359 13.4947 8.92329 13.6516 9.03597 13.7698C9.14865 13.8881 9.30507 13.9581 9.47083 13.9643C9.63659 13.9705 9.79811 13.9125 9.91985 13.8031C10.0416 13.6936 10.1136 13.5416 10.12 13.3806L10.4075 6.09488Z" fill="#FF0000"/>
</svg>
